<?xml version="1.0" encoding="UTF-8"?>
<svg id="_레이어_1" data-name="레이어 1" xmlns="http://www.w3.org/2000/svg" viewBox="0 0 95.62 39.15">
  <defs>
    <style>
      .cls-1 {
        fill: aqua;
      }

      .cls-2 {
        fill: #fff;
      }

      .cls-3 {
        fill: #1300ff;
        fill-rule: evenodd;
      }
    </style>
  </defs>
  <path class="cls-2" d="m39.6,28.4c-.38-.37-.57-.85-.57-1.46,0-.09.02-.26.05-.51l2.78-16.23h8.62c1.59,0,2.86.33,3.79,1,.93.67,1.4,1.58,1.4,2.72,0,.23-.03.47-.08.72l-.23,1.34c-.12.61-.37,1.18-.75,1.71-.38.54-.85.96-1.4,1.29v.03c.67.27,1.21.68,1.6,1.23.39.55.58,1.19.58,1.9,0,.12-.02.33-.05.62l-.23,1.39c-.24,1.52-.9,2.7-1.96,3.53-1.07.84-2.46,1.26-4.17,1.26h-7.82c-.66,0-1.18-.18-1.56-.55Zm9.27-2.66c.74,0,1.35-.16,1.82-.47.47-.31.75-.75.86-1.33l.21-1.18c.02-.07.03-.18.03-.32,0-.43-.16-.77-.47-1.03-.31-.26-.73-.39-1.25-.39h-6.47l-.81,4.71h6.08Zm.7-7.76c.55,0,1.03-.18,1.44-.55.41-.37.66-.85.77-1.46l.16-.91c.02-.07.03-.18.03-.32,0-.41-.16-.73-.47-.96-.31-.23-.74-.35-1.27-.35h-5.32l-.78,4.55h5.45Z"/>
  <path class="cls-2" d="m66.48,24.58h-6.83l-2.34,4.36h-3.87l10.31-18.74h1.61c1.13,0,1.8.54,2.03,1.61l3.53,17.14h-3.61l-.83-4.36Zm-5.32-3.11h4.88l-1.25-6.75h-.03l-3.61,6.75Z"/>
  <path class="cls-2" d="m74.54,10.2h3.04l6.7,12.75,2.18-12.75h3.51l-3.19,18.74h-3.04l-6.7-12.75-2.18,12.75h-3.51l3.19-18.74Z"/>
  <path class="cls-3" d="m20.87,12.51c3.9,0,7.06,3.16,7.06,7.06s-3.16,7.06-7.06,7.06-7.06-3.16-7.06-7.06,3.16-7.06,7.06-7.06m4.04-5.83c1.92.6,3.66,1.62,5.1,2.95l3.15-.52,1.46,2.53,1.46,2.53-2.02,2.46c.21.95.32,1.94.32,2.95s-.11,2-.32,2.95l2.02,2.46-1.46,2.53-1.46,2.53-3.15-.52c-1.45,1.33-3.18,2.35-5.1,2.95l-1.12,2.98h-5.83l-1.12-2.98c-1.92-.6-3.66-1.62-5.1-2.95l-3.15.52-1.46-2.53-1.46-2.53,2.02-2.46c-.21-.95-.32-1.94-.32-2.95s.11-2,.32-2.95l-2.02-2.46,1.46-2.53,1.46-2.53,3.15.52c1.45-1.33,3.18-2.35,5.1-2.95l1.12-2.98h5.83l1.12,2.98Z"/>
  <path class="cls-1" d="m27.74,21.21c.27.2.53.4.78.6,1.75,1.4,2.65,2.61,2.27,3.28-.38.68-1.87.55-3.99-.19-1.91-.67-4.41-1.83-7.06-3.3-2.65-1.47-4.95-2.99-6.52-4.26-1.75-1.4-2.64-2.61-2.27-3.28.38-.68,1.87-.55,3.99.19.29.1.6.22.92.34-.24.24-.45.49-.65.76-.2-.08-.39-.15-.58-.21-1.65-.58-2.73-.84-2.85-.63-.12.21.67,1,2.03,2.09,1.54,1.23,3.79,2.72,6.39,4.17,2.6,1.45,5.05,2.58,6.91,3.23,1.65.58,2.73.84,2.85.63.12-.21-.67-1-2.03-2.09-.16-.12-.32-.25-.49-.38.12-.31.22-.63.3-.95"/>
</svg>