<?xml version="1.0" encoding="UTF-8"?>
<svg id="_레이어_1" data-name="레이어 1" xmlns="http://www.w3.org/2000/svg" viewBox="0 0 124 40">
  <defs>
    <style>
      .cls-1 {
        fill: #fff;
      }
    </style>
  </defs>
  <path class="cls-1" d="M16.05,8.71v10.83c0,3.15-.55,6.77-4.49,6.77-1.6,0-3-.84-3.71-2.27-.62-1.27-.66-3.14-.66-4.5V8.71H2v12.46c0,2.83,.12,5.14,2.07,7.25,1.79,2.07,4.25,3.07,6.83,3.07,2.38,0,4.41-.92,5.58-3.07v2.35h4.76V8.71h-5.19Z"/>
  <path class="cls-1" d="M11.62,39.5c1.62,0,2.94-1.32,2.94-2.94s-1.32-2.94-2.94-2.94-2.94,1.32-2.94,2.94,1.32,2.94,2.94,2.94"/>
  <path class="cls-1" d="M36.82,30.76h5.19V13.4h3.04v-4.7h-3.04c.12-2.47,1.13-2.71,3.32-2.71V.86s-3.47-.82-6.12,1.82c-1.18,1.18-2.37,3.37-2.39,6.03h-1.83v4.7h1.83V30.76Z"/>
  <path class="cls-1" d="M24.99,30.76h5.19V13.4h3.04v-4.7h-3.04c.12-2.47,1.13-2.71,3.32-2.71V.86s-3.47-.82-6.12,1.82c-1.18,1.18-2.37,3.37-2.39,6.03h-1.83v4.7h1.83V30.76Z"/>
  <path class="cls-1" d="M50.53,6.38c1.62,0,2.94-1.32,2.94-2.94s-1.32-2.94-2.94-2.94-2.94,1.32-2.94,2.94,1.32,2.94,2.94,2.94"/>
  <rect class="cls-1" x="47.95" y="8.7" width="5.19" height="22.05"/>
  <path class="cls-1" d="M78.01,8.71h-4.76v3.11c-1.72-2.47-4.29-3.82-7.26-3.82-3.16,0-5.85,1.23-8.04,3.82-1.99,2.31-2.77,4.85-2.77,7.92s.97,5.93,2.69,8.04c1.87,2.27,4.6,3.7,7.96,3.7,2.73,0,5.77-1.43,7.41-3.7v2.99h4.76V8.71Zm-4.92,10.99c0,3.78-2.57,6.65-6.32,6.61-3.51,.04-6.4-2.75-6.4-6.37,0-3.86,2.65-6.81,6.48-6.77,3.67-.04,6.24,2.83,6.24,6.53"/>
</svg>